PathFileType	4	(X/Y/Z)	38_2_7_p0_0-268_filt_butterworth.trc
DataRate	CameraRate	NumFrames	NumMarkers	Units	OrigDataRate	OrigDataStartFrame	OrigNumFrames
59.0	59.0	7	27	m	59.0	100	268
Frame#	Time	RHip			RKnee			RAnkle			RBigToe			RSmallToe			RHeel			LHip			LKnee			LAnkle			LBigToe			LSmallToe			LHeel			Neck			Head			Nose			RShoulder			RElbow			RWrist			RThumb			RIndex			RPinky			LShoulder			LElbow			LWrist			LThumb			LIndex			LPinky			
		X1	Y1	Z1	X2	Y2	Z2	X3	Y3	Z3	X4	Y4	Z4	X5	Y5	Z5	X6	Y6	Z6	X7	Y7	Z7	X8	Y8	Z8	X9	Y9	Z9	X10	Y10	Z10	X11	Y11	Z11	X12	Y12	Z12	X13	Y13	Z13	X14	Y14	Z14	X15	Y15	Z15	X16	Y16	Z16	X17	Y17	Z17	X18	Y18	Z18	X19	Y19	Z19	X20	Y20	Z20	X21	Y21	Z21	X22	Y22	Z22	X23	Y23	Z23	X24	Y24	Z24	X25	Y25	Z25	X26	Y26	Z26	X27	Y27	Z27	
100	1.694915254237288	0.4022957324746998	0.7076038815161729	0.5586100932824934	0.4029695512593467	0.9016946325933293	0.9757296000324509	0.37273888309146475	1.0624250115199863	1.3665871451685372	0.3152953600344382	0.8726051543852282	1.4301491769425931	0.3806079068919519	0.8879881220857044	1.433274728123466	0.3518927662185438	1.162576577983905	1.4102908859384602	0.19752343797542152	0.7331879698348784	0.5300272514686701	0.1872176712416034	0.9274520540579683	0.9480944615703899	0.18104468687135408	1.0508920726179687	1.3276653780478112	0.1716715867670381	0.89909082472145	1.417730758418509	0.12212447769663563	0.9392508211161489	1.4129284781860496	0.20709199072948797	1.153062480848412	1.4006670225359812	0.34848563886932477	0.5739244177654668	-0.08100292255821721	0.36035051826516556	0.4525598529414658	-0.32491662122548376	0.3102374742976659	0.4086485555150239	-0.17113174987737095	0.5040445109002631	0.5583866776064341	0.052013896756361304	0.5378201993934083	0.6492051374747546	0.36268471478534076	0.45968047572729237	0.6044415228757557	0.6169811598884498	0.3683467253373482	0.6312024748752666	0.7449436513565955	0.3773832624262651	0.6304229153200728	0.7712012627348357	0.43648086884255755	0.7080478754136528	0.7760656116261131	0.16932563281663351	0.6588227638612395	-0.013824309875159688	0.10755193703641755	0.7287811835663245	0.25228978512865685	0.09039590297078062	0.7210386520703249	0.5279268230117016	0.1136537149356681	0.7484883182689335	0.6304496306342623	0.09559438194763503	0.7462960912853052	0.6535815088898372	0.06683492171138705	0.7577426281909182	0.638275305640259
101	1.7118644067796611	0.40209755197219343	0.7068588099948355	0.5576558995867471	0.40284675301628026	0.9010807316299092	0.9743910057701619	0.3740644055076474	1.059490294255798	1.3658296411141382	0.31650880440380863	0.8761903617694864	1.4312379245526896	0.38069255994505696	0.8880389753132011	1.433238548490512	0.3516993012090086	1.1621755396789542	1.4076768959531525	0.19874740917116707	0.732314451790312	0.5279075278186116	0.1877116380723258	0.927406042767029	0.9481200053770865	0.18102708005347243	1.0504369630161476	1.328962850698565	0.17168051841726154	0.899084347535432	1.4177342349866193	0.1220829960871864	0.9395636326822789	1.413419993018883	0.20574365357872884	1.1519141993033912	1.4007995140002343	0.34876716812727127	0.574294518598855	-0.08112026239984955	0.36100687266415965	0.4526016582168185	-0.3259410274967298	0.312147084728467	0.4107274880547414	-0.17313893676429132	0.5040771376547988	0.5584540732260066	0.05206345791728974	0.5379622693308165	0.6492039100407541	0.36222596484747777	0.4614752209510425	0.6056698008400289	0.6172613385988474	0.37237676289610466	0.6349727138920928	0.7496301736774462	0.38362137748273856	0.6340145210623926	0.7722156322779321	0.44476528538019017	0.7069489060637963	0.7766492050238839	0.16927484452985095	0.6590719560129489	-0.013824037036120378	0.11004720965480197	0.7307905784890194	0.2521393345230803	0.09381642096172611	0.7187783110161983	0.5293117268756716	0.11604690336558589	0.7512760633525013	0.6313469153554369	0.09749824825864839	0.7511194856552303	0.6552985297723982	0.06867080737395637	0.7569498686567168	0.6384313033709039
102	1.728813559322034	0.4020398165389848	0.7064880238294191	0.5570984084761741	0.4032921909956349	0.9009384742264213	0.9738430297874472	0.37463022807400037	1.055934961281651	1.364857610211265	0.3175005321191231	0.8790422606638351	1.4326473889217213	0.38129962073358153	0.8894066852727096	1.4336061039575925	0.3516732455805762	1.1621002107308902	1.4066921222187196	0.19969402862565677	0.7312506586023824	0.5256196663572406	0.18766960067034963	0.9271085733308402	0.9480719169957561	0.18115487861166496	1.0500912396506061	1.3299229246071664	0.17167964643125458	0.8990472784972718	1.417748996391991	0.12205272315755417	0.9395446518891826	1.4134215079839472	0.20388724197300395	1.150280849212024	1.4007460287801141	0.3498215372460448	0.5745238597770559	-0.08114522681298228	0.3615759991983407	0.45236084554376554	-0.3262264982807245	0.31429572919143245	0.41359348722209605	-0.17554833702375014	0.5041377588372422	0.558586120697213	0.052242462948747584	0.5387357305993574	0.6501991487533885	0.3608124244256949	0.4644767073872409	0.607001298375666	0.617344072056426	0.37717897605424766	0.6383669052792966	0.7523016580394635	0.3930296699199211	0.6444119623925916	0.7740459864074373	0.45159577532613526	0.7091613014483399	0.7777467190347059	0.16920604100195388	0.6591219160572671	-0.013760543218015748	0.11230168873742725	0.7314995399522588	0.2536800021038688	0.09567101282626923	0.7179134783499367	0.5304151607242064	0.11758615548883208	0.7523191655530377	0.6328287446134568	0.0982851776654444	0.7533992713371237	0.6575875748163769	0.07018258341263844	0.7575643786587729	0.6387490763900228
103	1.7457627118644068	0.4020407615140894	0.7060816466279825	0.5560959927349781	0.4046174492523521	0.9012402049477286	0.9737802192877254	0.37472494529861683	1.0541522681260997	1.3643227038821808	0.3188983006677242	0.8826964412226228	1.4336799416078305	0.3828378838132756	0.893192186251552	1.43472023668211	0.3518128082306279	1.162475380180937	1.407180143572005	0.20011450855692609	0.730292140736273	0.5234845609490048	0.1875268258893952	0.9265769322204325	0.9479460169486505	0.18131936698317117	1.0501951413520112	1.330458677617219	0.17166839692914218	0.899020260840321	1.417768331502113	0.12205780517615121	0.9393739031766123	1.413300043550175	0.20226733666471386	1.1490253931113505	1.400856479587614	0.3514475156270542	0.5734683255419064	-0.08097593033608817	0.3620935098049645	0.4522048839897292	-0.3260861527720178	0.3169957350208718	0.41582864636458833	-0.17726753889539018	0.5041885312194379	0.5586728477570189	0.052233583151179375	0.5403480635202215	0.6527901039801126	0.3586054509402047	0.468484137604523	0.6113927143864867	0.6174844364354337	0.3829644020578264	0.642285816732829	0.7529379798658942	0.40402639441319593	0.659282177996331	0.776649658627397	0.4568281203745015	0.7159238997093617	0.7795144439464079	0.16942276291921657	0.6577838503086659	-0.013595556098887561	0.11440059940940325	0.7311637643545551	0.2558865934632656	0.09627377822703252	0.7181290453552857	0.5309491487183717	0.11828729585275097	0.7525735259033731	0.634665507019887	0.09913320313021756	0.7543219132357266	0.6606728773155683	0.07226549166992377	0.7585588004965519	0.6393090303632654
104	1.7627118644067796	0.4020277573746339	0.7053086829891821	0.5541391538323899	0.40643019652394796	0.9016888370121334	0.973787429271471	0.3746719599294946	1.0539756007615986	1.3642192227902723	0.3206781472678202	0.887161831974322	1.4340375271008117	0.3848865516410346	0.8984273466513522	1.4363047423692203	0.3521564793093862	1.1634476414595678	1.408716043050067	0.2002166607463435	0.7295677138854376	0.5217296184317302	0.18748154080154	0.9259948903034214	0.9477880005926178	0.18154271558483326	1.050951604858345	1.3311146013445545	0.17166474163373463	0.8990516912336903	1.417777589959591	0.12208013450144618	0.9391402074851641	1.4131858624575768	0.20097448206786403	1.148568615178236	1.4011980526814212	0.3530444359232322	0.5701643766943925	-0.08041930470828144	0.36237242910473794	0.4521334638647869	-0.32587209517283927	0.32066363406580384	0.4161482689696492	-0.1774058996330825	0.5041816366922913	0.558599655825361	0.051694626554020004	0.5423303085974696	0.6563159813035679	0.35667199013296036	0.47306773818433034	0.6186291800476462	0.6178147944525318	0.38969907769614237	0.6495905609897791	0.7526673396297558	0.4139397035891756	0.6714379046519852	0.7790878624470641	0.46126606551660965	0.7239120923808066	0.7813397488812617	0.17017288594487376	0.6540908078964378	-0.013364011789235027	0.11637930140901032	0.7305578169960228	0.2576749518895117	0.09632727831063202	0.7185659300517704	0.5311000379543377	0.11849235076237756	0.752563710934197	0.6360671767281447	0.10029839601888525	0.754995511947855	0.663739607224684	0.07454731614007012	0.7604225861524936	0.6402527796492653
105	1.7796610169491525	0.40200921733207673	0.7045643155678507	0.5522890086811737	0.407834774876083	0.9019736109078756	0.9737283770423244	0.3746422705283581	1.054227731356229	1.364247329819314	0.3220523703884579	0.8905029477841258	1.4340489948512334	0.3863163358346063	0.9022265121934675	1.437486597314317	0.3526163227778447	1.164728858236961	1.4106084503324117	0.2002261685510903	0.7291000526667217	0.5206907186576664	0.18752559807080646	0.9255097071295353	0.9476441313942922	0.18179590043849403	1.0521232299357468	1.332063795168322	0.17167715254732172	0.899126265088071	1.4177664063258384	0.12209860386053134	0.9388714658050147	1.413068582813429	0.19975505537679353	1.1487421651747	1.4016127807667509	0.3541334996954551	0.5655594293913307	-0.07961739832812781	0.3624403049280526	0.45202471179206005	-0.325823539334991	0.32500817683116995	0.4141701160882502	-0.17613295128902512	0.5041393407985157	0.5583639512755515	0.05055364405918095	0.5438308289890625	0.6591310825701546	0.35586280507035034	0.4785981239334127	0.6272323928354719	0.6186217222226091	0.3976542946398842	0.66253865869336	0.7525564191563852	0.4217202170416605	0.6771136227857518	0.7804778822807732	0.4655039335428713	0.7285344884231988	0.7824052257988969	0.17124604994872825	0.6490313402967627	-0.013155394870836914	0.11803476913319987	0.7302849039364077	0.258991584294529	0.09627986721267759	0.7188060943189792	0.531124636995475	0.1185103867789987	0.7523478959257878	0.6365452710686018	0.1012927153459255	0.7555199850788201	0.6659206812999736	0.07619113963456173	0.7628866827087442	0.6412007628659885
106	1.7966101694915255	0.40203130966973966	0.704608795469798	0.5523163321885055	0.40837469267030746	0.901894258503645	0.9736431304780399	0.37465680871398566	1.0543564268917103	1.3642680296309841	0.32257402317533307	0.8914569620448688	1.4342578378012831	0.3862891747310958	0.9023085280219219	1.4375511277589648	0.35298359398905865	1.1657078182711291	1.4119680839211115	0.2002466926948457	0.7288776253786539	0.5206929112488334	0.1875832704118683	0.9251777917223355	0.947552396172999	0.18210555416165106	1.0533370212648347	1.3327417125017889	0.1717024025396117	0.8991671140055526	1.417736982180221	0.12211630708226273	0.938619635808388	1.4129488755466837	0.19933671052190566	1.149565110478557	1.4023269888414485	0.354613911699997	0.5619812387849222	-0.0789862530653187	0.36245126431308594	0.45184620334969877	-0.32618767205508203	0.32882307749200457	0.41090381249305186	-0.17454596139721062	0.5042341404365523	0.5581165332369402	0.049526172106893	0.5446409930458593	0.6606192372866566	0.35576646660712474	0.4853680027796243	0.6372614805595562	0.6202020625545426	0.406652452677051	0.6791334890352774	0.7529279547724445	0.4280639409140649	0.6786847367402224	0.780939727004323	0.4701015999825215	0.7308153418067305	0.7827815945079944	0.17200764163770066	0.6449976597687553	-0.012860101625328198	0.11908730528947094	0.7306090668227239	0.260047628957241	0.09625776673347806	0.7188183449898503	0.5311338120950244	0.11848747015279104	0.7519017487180928	0.6363578651728081	0.10184930792575478	0.7559649061734571	0.6674444029178376	0.07710447444026546	0.7639614958259937	0.6416130504836219
